<svg width="114" height="102" viewBox="0 0 114 102" fill="none" xmlns="http://www.w3.org/2000/svg">
<path d="M93.9506 101.089C98.3221 94.738 100.946 88.8259 101.648 84.0095L96.0379 74.8321L89.3292 82.6766C89.1257 87.6484 90.6159 94.0853 93.9506 101.09V101.089ZM6.25775 100.401C12.9281 96.5498 17.8331 92.3439 20.5401 88.3009L19.4268 77.5928L9.993 81.797C7.67503 86.1979 6.25752 92.6462 6.25752 100.401H6.25775ZM27.7617 94.0068C30.1413 89.0765 31.6992 84.4349 32.4857 80.3395L28.1791 66.8193L23.5431 74.8466L25.0666 89.4295H25.0596C25.8974 90.9915 26.799 92.5186 27.7619 94.0068H27.7617ZM110.613 86.0669C110.643 80.5909 110.052 75.7305 109.002 71.6964L99.3046 61.3478L98.5722 70.5836L106.219 83.0931L106.212 83.1006C107.638 84.1484 109.107 85.1381 110.613 86.0671V86.0669ZM79.4779 83.5984C81.4502 82.7772 83.2959 81.9079 85.0078 80.9983L94.207 70.2241L94.9321 60.9958L83.1107 70.1584C81.5376 73.8859 80.2771 78.4232 79.4779 83.5984ZM37.942 78.5298C43.5726 64.915 41.7295 55.5939 36.0967 53.1002L31.1381 61.6841L35.7304 76.0837C36.4467 76.918 37.1842 77.7337 37.9424 78.5301L37.942 78.5298ZM3.71619 78.4788C4.7826 78.4853 5.81853 78.4591 6.8287 78.4131L19.7495 72.6564L24.3855 64.622L9.77385 67.8224C6.75112 70.5107 3.659 74.0629 0.713852 78.3913C1.73526 78.442 2.73885 78.4729 3.71666 78.479L3.71619 78.4788ZM56.707 76.435C62.1539 70.9886 65.8082 65.653 67.3781 61.0471L63.5259 50.9908L55.5056 57.4947C54.4052 62.3472 54.7003 68.9453 56.707 76.435ZM113.155 67.7205C112.386 53.0088 106.714 45.3822 100.557 45.55L99.7734 55.4453L110.101 66.4609C111.108 66.9065 112.126 67.3265 113.155 67.7205H113.155ZM79.5876 65.0545C81.0449 64.7487 82.4911 64.392 83.9235 63.985L95.4009 55.0933L96.1771 45.3081C89.9681 43.548 82.7803 50.1285 79.5881 65.0542L79.5876 65.0545ZM75.8235 64.6881C76.8454 59.3127 77.1478 54.4314 76.8487 50.2741L69.1874 38.3209L66.7921 47.2713L72.0438 60.9674H72.0367C73.2475 62.2588 74.5107 63.5001 75.8231 64.6881H75.8235ZM13.1498 62.5933L27.3442 59.4953L32.2511 50.9992C27.4038 46.7348 18.086 49.5848 8.78432 61.6926C10.2286 62.0431 11.6847 62.3435 13.1498 62.5933ZM45.6548 56.6097C47.7435 56.1597 49.7104 55.6347 51.558 55.0495L62.5666 46.1362L64.9619 37.1854L51.6752 44.0486C49.4503 47.4292 47.3807 51.6634 45.655 56.6095L45.6548 56.6097ZM9.29736 50.7355C15.356 45.9721 19.6206 41.1121 21.7263 36.7241L19.0966 26.287L10.3591 31.7877C8.68893 36.4729 8.1944 43.0584 9.29736 50.7353V50.7355ZM38.2057 48.7211C46.2764 30.5399 52.1261 11.4414 52.9642 -10.5828H48.5767C47.7428 10.6966 42.1143 29.1269 34.2067 46.9412L38.2059 48.7213L38.2057 48.7211ZM81.6529 47.1025C83.5685 32.4899 79.3762 23.9666 73.2888 23.0205L70.7177 32.6003L78.8772 45.3152C79.7873 45.9342 80.7129 46.5301 81.6531 47.1023L81.6529 47.1025ZM29.6803 41.3528C31.3333 36.1396 32.2155 31.3286 32.4124 27.1656L26.2235 14.3702L22.7812 22.9766L26.3624 37.2002H26.3484C27.3562 38.5708 28.4655 39.9564 29.6805 41.3526L29.6803 41.3528ZM100.572 40.9937C102.602 23.5131 102.477 6.34492 97.7151 -10.5833H93.1588C98.0519 6.00391 98.2598 22.937 96.2207 40.4884L100.571 40.9937H100.572ZM49.1334 38.3936C50.6833 38.3561 52.1692 38.267 53.594 38.1299L66.4921 31.458L69.0337 21.9873C63.247 19.1209 54.9857 24.2889 49.1339 38.3936H49.1334ZM0.683846 29.7365C2.8101 29.5387 4.82384 29.2555 6.72604 28.8941L18.7157 21.3433L22.1582 12.7518L8.15432 17.9814C5.54338 21.0735 2.98518 25.0302 0.683617 29.7365H0.683846ZM37.5534 24.5802C41.1928 10.2979 38.0446 1.33257 32.1119 -0.32914L28.4275 8.87711L35.0121 22.4779C35.816 23.181 36.6651 23.8806 37.5536 24.5802H37.5534ZM74.0507 18.5814C77.0212 8.91742 79.2679 -0.765549 80.3423 -10.5833H75.933C74.8767 -1.27344 72.7244 7.98624 69.8615 17.3003L74.051 18.5816L74.0507 18.5814ZM10.7695 12.3341L24.3632 7.25101L28.0108 -1.86031C22.607 -5.3989 13.7906 -1.24953 6.30182 12.0632C7.78742 12.2055 9.27756 12.2958 10.7695 12.3339V12.3341ZM33.4453 -4.92875C33.8845 -6.73649 34.1917 -8.6218 34.3021 -10.5833L29.9224 -10.5833C29.8169 -9.01625 29.5591 -7.48813 29.1897 -5.96914L33.445 -4.92851L33.4453 -4.92875Z" fill="#002500" fill-opacity="0.1"/>
</svg>
