<svg width="177" height="112" viewBox="0 0 177 112" fill="none" xmlns="http://www.w3.org/2000/svg">
<path d="M114.346 1.3291C71.1833 32.1374 83.7333 86.5208 83.7333 86.5208L93.0958 68.7916M114.346 1.3291C132.033 51.3208 90.5667 88.6708 90.5667 88.6708L93.0667 68.7791M38.9167 11.0208C61.225 12.4791 79.8167 35.1916 79.8167 35.1916C74.2479 48.3013 72.7216 62.7754 75.4333 76.7583C54.7667 58.6624 35.6 39.8958 38.9125 11.0208H38.9167ZM0.283325 80.6583C25.7446 97.3434 54.8559 107.639 85.1458 110.671C69.9875 75.5833 43.05 63.0041 0.283325 80.6583V80.6583ZM91.1208 110.479C137.058 108.15 175.671 81.2624 175.717 80.9999C136.633 64.1458 108.246 73.5041 91.1208 110.479Z" stroke="#002500" stroke-opacity="0.2" stroke-linecap="round" stroke-linejoin="round"/>
</svg>
