<svg width="26" height="26" viewBox="0 0 26 26" fill="none" xmlns="http://www.w3.org/2000/svg">
<path d="M13 0C12.375 0 11.754 0.21 11.219 0.594L9.56299 1.75L7.65499 2H7.62399L7.59299 2.031C6.96723 2.17231 6.39433 2.48809 5.94071 2.94171C5.48708 3.39534 5.17131 3.96824 5.02999 4.594L4.99999 4.625V4.656L4.74999 6.594L3.59399 8.094L3.56199 8.125V8.156C2.86299 9.273 2.83199 10.715 3.59399 11.781L4.78099 13.437L5.09399 15.157L1.87499 20.062L0.843994 21.594H5.62499L6.78099 24.281L7.49999 26L8.53099 24.437L11.687 19.687C12.535 20.035 13.492 20.067 14.313 19.687L17.469 24.437L18.5 26L19.219 24.281L20.375 21.594H25.156L24.125 20.062L21 15.313L21.25 13.438L22.406 11.782L22.438 11.751V11.72C23.137 10.603 23.168 9.192 22.406 8.126L21.25 6.469L20.875 4.594H20.906C20.902 4.57 20.879 4.554 20.875 4.531C20.695 3.223 19.66 2.161 18.344 2H18.312L16.437 1.75L14.781 0.594C14.2638 0.215118 13.6411 0.00742857 13 0ZM13 2.031C13.23 2.031 13.457 2.101 13.625 2.219L15.406 3.5L15.625 3.656L15.875 3.688L18.063 4H18.093C18.543 4.05 18.855 4.363 18.906 4.813V4.875L19.313 7.094L19.343 7.313L19.5 7.5L20.781 9.281C21.02 9.613 21.051 10.176 20.75 10.656L19.344 12.625L19.312 12.875L19 15.063V15.093C18.9834 15.2493 18.9299 15.3994 18.844 15.531L18.781 15.563V15.593C18.6324 15.7715 18.4192 15.884 18.188 15.906H18.125L15.844 16.313L15.594 16.343L15.406 16.5L13.625 17.781C13.293 18.02 12.699 18.051 12.219 17.75L10.594 16.5L10.406 16.344L10.125 16.312L7.93699 16H7.90699C7.76559 15.9875 7.62927 15.9412 7.50953 15.865C7.38979 15.7887 7.29014 15.6848 7.21899 15.562C7.15254 15.4467 7.11003 15.3191 7.09399 15.187V15.125L6.68799 12.844L6.65599 12.594L6.49999 12.406L5.21899 10.625C4.97999 10.293 4.94899 9.699 5.24999 9.219L6.49999 7.594L6.65599 7.406L6.68699 7.125L6.96899 5.031C6.97299 5.016 6.99599 5.016 6.99999 5C7.06234 4.75927 7.18793 4.53961 7.36377 4.36377C7.5396 4.18794 7.75927 4.06234 7.99999 4C8.01599 3.996 8.01599 3.973 8.03099 3.969L10.125 3.687L10.375 3.657L10.594 3.5L12.375 2.219C12.543 2.102 12.77 2.031 13 2.031ZM19.906 17.25L21.438 19.594H19.03L18.78 20.219L18.093 21.812L15.968 18.562L16.436 18.219L18.406 17.875V17.906C18.429 17.902 18.444 17.879 18.468 17.875C18.9943 17.7991 19.4906 17.5832 19.905 17.25H19.906ZM6.09399 17.281C6.52822 17.6758 7.07372 17.9269 7.65599 18H7.68699L9.59399 18.25L10.031 18.594L7.90599 21.812L7.21899 20.219L6.96899 19.594H4.56299L6.09399 17.281Z" fill="#002500"/>
</svg>
