<svg width="30" height="20" viewBox="0 0 30 20" fill="none" xmlns="http://www.w3.org/2000/svg">
<path d="M19.2153 1.25293C12.3093 6.18226 14.3173 14.8836 14.3173 14.8836L15.8153 12.0469M19.2153 1.25293C22.0453 9.2516 15.4107 15.2276 15.4107 15.2276L15.8107 12.0449M7.14667 2.8036C10.716 3.03693 13.6907 6.67093 13.6907 6.67093C12.7997 8.76848 12.5555 11.0843 12.9893 13.3216C9.68266 10.4263 6.616 7.4236 7.146 2.8036H7.14667ZM0.965332 13.9456C5.03914 16.6152 9.69694 18.2625 14.5433 18.7476C12.118 13.1336 7.808 11.1209 0.965332 13.9456V13.9456ZM15.4993 18.7169C22.8493 18.3443 29.0273 14.0423 29.0347 14.0003C22.7813 11.3036 18.2393 12.8009 15.4993 18.7169Z" stroke="#002500" stroke-linecap="round" stroke-linejoin="round"/>
</svg>
