<svg width="114" height="102" viewBox="0 0 114 102" fill="none" xmlns="http://www.w3.org/2000/svg">
<path d="M100.001 46.0406C84.3019 30.0544 98.22 19.8356 98.22 19.8356C98.22 19.8356 83.7412 19.8525 79.7644 31.7081C80.6062 31.6388 81.4463 31.8319 82.1588 32.4038C87.5231 36.7163 80.5687 42.9975 77.3288 40.2C73.44 36.8512 75.9225 32.76 78.9131 31.8713C78.1012 31.11 77.295 30.3525 76.4962 29.6213C76.3069 32.5069 72.5775 34.8731 70.5187 33.0975C67.0069 30.0712 69.3806 26.3494 72.0994 25.6837C71.3194 24.9994 70.545 24.3281 69.7762 23.6738C69.1819 26.2894 65.7975 28.245 63.8756 26.5875C60.7087 23.8575 62.3325 20.5669 64.6763 19.4569C64.0875 18.9862 63.495 18.5119 62.9156 18.06C62.8599 18.4181 62.731 18.7609 62.5369 19.0669C59.2781 23.9888 52.95 17.6306 55.0875 14.6569C55.5281 14.0437 56.0081 13.6031 56.5088 13.3069C56.1263 13.0406 55.7437 12.7669 55.3669 12.5063C55.2844 12.6225 55.2113 12.7369 55.0969 12.8531C50.46 17.5125 47.4056 9.60938 48.9037 8.35875C48.9075 8.355 48.9113 8.355 48.915 8.34938C48.6301 8.18122 48.3445 8.01434 48.0581 7.84875C47.9631 8.0704 47.8269 8.27207 47.6569 8.44313C43.9969 12.12 41.5687 6.12187 42.5887 4.90312C42.315 4.76813 42.0469 4.64062 41.7769 4.51312C41.7518 4.5989 41.7152 4.68088 41.6681 4.75688C40.0875 7.20375 37.3706 3.68062 37.5994 2.7225C37.3106 2.61 37.0181 2.4975 36.7331 2.39438C35.625 4.96875 32.0137 1.90125 32.4 1.1025L32.4037 1.09688C32.1038 1.0275 31.8038 0.954375 31.5112 0.8925C30.7688 2.41688 28.8881 1.31812 28.1794 0.414375C27.8898 0.393001 27.5997 0.379871 27.3094 0.375C27.9094 1.10813 28.1794 2.06437 27.6994 2.65875C26.0081 4.75125 23.4563 2.2575 23.8219 0.624375C22.9814 0.780304 22.1608 1.02869 21.375 1.365C21.8044 1.455 22.215 1.62187 22.5806 1.91062C27.5925 5.87062 20.7169 12.1294 17.6925 9.555C16.7044 8.71313 16.185 7.80188 15.9938 6.90188C15.6968 7.63306 15.4726 8.39172 15.3244 9.16687C16.9219 8.61375 19.5713 11.3156 17.4581 13.0856C16.83 13.6106 15.7931 13.2562 15.0581 12.5475C15.0619 12.8419 15.0769 13.1456 15.0956 13.4531C16.0312 14.0775 17.4019 16.3088 15.5663 17.0438C15.6281 17.3569 15.6956 17.6756 15.7688 17.9963C15.8194 17.9513 15.87 17.9025 15.93 17.8744C16.7362 17.4713 19.8844 21.3375 17.0362 22.3631C17.1413 22.665 17.2406 22.9631 17.3531 23.2706C17.3681 23.2538 17.3775 23.2313 17.3944 23.2181C18.0788 22.6313 22.0538 25.6125 19.5225 27.3056C19.3911 27.3939 19.2381 27.4445 19.08 27.4519C19.2244 27.7706 19.3669 28.0875 19.5206 28.41C19.5413 28.3781 19.5544 28.3425 19.5769 28.3125C20.5669 27.0825 26.8369 29.5931 23.1413 33.4031C22.93 33.6317 22.6623 33.8004 22.365 33.8925C22.5506 34.2225 22.7363 34.5563 22.9294 34.89C22.9725 34.8188 23.0044 34.7381 23.055 34.6763C24.2812 33.1519 32.0475 36.2588 27.4688 40.9819C27.3037 41.1506 27.135 41.2819 26.9663 41.3869C27.2419 41.805 27.5287 42.225 27.8156 42.6469C28.1006 42.0581 28.5487 41.4862 29.2388 40.9706C32.1619 38.7919 38.4038 45.2363 33.57 48.5569C33.4744 48.6244 33.3694 48.66 33.2681 48.7106C14.6888 45.615 0.75 47.6494 0.75 47.6494C0.75 47.6494 42.4856 63.1481 57.9 87.3094C66.3375 100.534 81.8962 106.759 93.8775 96.5119L93.855 96.6113C95.6175 98.4713 98.475 98.4713 100.236 96.6094L108.107 88.3087C109.487 86.8537 109.77 84.6937 108.988 82.9331C115.217 74.5312 116.43 62.7731 100.001 46.0406ZM106.864 70.2881C104.466 70.5375 101.076 63.0713 104.325 62.3288C109.671 61.11 108.48 70.1231 106.864 70.2881ZM96.9094 84.2869C95.322 82.3639 93.662 80.5019 91.9331 78.705C93.3769 77.0306 95.7769 76.1606 97.3369 77.3756C100.146 79.5656 98.9531 82.6144 96.9094 84.2869ZM43.9237 50.8069C41.5144 47.6062 47.4244 40.9237 51.3675 45.7669C52.9088 47.6606 50.9062 51.21 48.3037 52.2131C46.9195 51.7925 45.5273 51.398 44.1281 51.03C44.0625 50.9512 43.9912 50.895 43.9237 50.8069ZM41.5238 20.6494C46.3256 24.3937 39.4669 30.6694 36.5738 28.2281C31.8188 24.2137 38.3813 18.1969 41.5238 20.6494ZM30.27 21.99C25.5131 17.9775 32.0756 11.9588 35.22 14.4131C40.0181 18.1556 33.1612 24.4331 30.27 21.99ZM47.8294 26.8838C52.6312 30.6281 45.7706 36.9056 42.8794 34.4662C38.1225 30.4481 44.6869 24.4331 47.8294 26.8838ZM61.5656 53.6362C56.8088 49.6237 63.3713 43.6031 66.5138 46.0575C71.3156 49.8 64.4569 56.0794 61.5656 53.6362ZM72.3281 51.9769C77.13 55.7194 70.2694 61.9969 67.3763 59.5556C62.6213 55.5431 69.1837 49.5281 72.3281 51.9769ZM55.3894 47.5481C50.6325 43.5338 57.195 37.5169 60.3394 39.9694C65.1375 43.7138 58.2806 49.9894 55.3894 47.5481ZM49.2694 40.7869C44.5125 36.7687 51.075 30.7538 54.2194 33.2044C59.0175 36.9487 52.1606 43.2262 49.2694 40.7869ZM44.8331 39.1106C47.2294 42.0563 41.0662 49.0406 37.3894 44.1525C34.98 40.9519 40.89 34.2694 44.8331 39.1106ZM50.8481 53.0362C52.3819 50.82 55.5094 49.4812 57.915 52.4362C58.6256 53.31 58.5713 54.5381 58.065 55.7044C55.6913 54.7309 53.2842 53.841 50.8481 53.0362ZM78.6488 58.155C82.02 60.7838 79.6406 64.65 76.9256 65.88C75.3328 64.7862 73.7077 63.7401 72.0525 62.7431C71.8256 59.385 76.2356 56.2744 78.6488 58.155ZM90.9919 77.7375C89.2618 75.9592 87.4636 74.2486 85.6012 72.6094C87.0038 70.7419 89.5856 69.6844 91.2337 70.9744C93.9619 73.1006 92.925 76.0387 90.9919 77.7375ZM92.5744 70.5675C87.8213 66.5513 94.3837 60.5363 97.5262 62.9869C102.326 66.7294 95.4675 73.005 92.5744 70.5675ZM86.1656 64.0369C81.4088 60.0206 87.9713 54.0037 91.1138 56.4562C95.9137 60.1987 89.055 66.4762 86.1656 64.0369ZM84.495 64.7756C87.2044 66.8906 86.1975 69.8119 84.2869 71.5144C82.409 69.933 80.472 68.4231 78.48 66.9881C79.7381 64.7719 82.68 63.3581 84.495 64.7756ZM104.154 69.7369C108.954 73.4812 102.096 79.7569 99.2044 77.3156C94.4494 73.3031 101.012 67.2862 104.154 69.7369ZM102.904 55.83C106.804 61.5206 100.577 64.5169 98.2406 60.9094C94.3931 54.9806 100.354 52.1044 102.904 55.83ZM96.225 47.3044C101.589 51.615 94.635 57.8963 91.3913 55.0988C86.055 50.5031 92.7094 44.4806 96.225 47.3044ZM89.4131 39.7931C94.7775 44.1038 87.8231 50.385 84.5831 47.5875C79.2469 42.9919 85.9012 36.9713 89.4131 39.7931ZM84.4256 49.6481C89.2275 53.3887 82.3669 59.6681 79.4775 57.2269C74.7206 53.2144 81.2831 47.1975 84.4256 49.6481ZM77.8913 42.9919C82.6912 46.7344 75.8344 53.0137 72.9412 50.5706C68.1844 46.5581 74.7487 40.5394 77.8913 42.9919ZM71.2931 36.2738C76.0931 40.0181 69.2325 46.2956 66.3412 43.8544C61.5844 39.8381 68.1469 33.8213 71.2931 36.2738ZM64.7456 29.6081C69.5456 33.3506 62.6869 39.6281 59.7956 37.1869C55.0388 33.1725 61.6012 27.1556 64.7456 29.6081ZM58.2094 22.9538C63.0112 26.6944 56.1506 32.9738 53.2594 30.5306C48.5044 26.5181 55.0669 20.4994 58.2094 22.9538ZM51.9713 16.6012C56.7731 20.3456 49.9144 26.6231 47.0212 24.18C42.2663 20.1675 48.8306 14.1488 51.9713 16.6012ZM45.3431 10.6294C50.145 14.3737 43.2844 20.6494 40.3931 18.2081C35.6362 14.1937 42.1988 8.17875 45.3431 10.6294ZM38.8106 5.70188C43.1644 9.10125 36.945 14.7937 34.32 12.5794C30.0075 8.93437 35.9606 3.47813 38.8106 5.70188ZM31.9425 2.79938C35.4956 5.77875 31.59 9.21187 29.4319 7.29375C25.8825 4.14187 29.6156 0.849375 31.9425 2.79938ZM28.845 8.1075C34.1475 12.3637 27.2475 18.5981 24.0431 15.8363C18.7688 11.295 25.3706 5.31937 28.845 8.1075ZM17.5969 17.4056C15.6825 15.0375 18.9169 11.235 22.0125 14.8519C23.895 17.0512 20.5219 21.0244 17.5969 17.4056ZM20.4469 24.4012C18.2606 21.4969 23.6231 15.435 27.2006 19.8281C29.3756 22.5019 23.7844 28.8356 20.4469 24.4012ZM25.2863 31.0519C22.8787 27.8512 28.7869 21.1688 32.73 26.0119C35.1263 28.9575 28.9631 35.94 25.2863 31.0519ZM31.1513 37.8037C28.7438 34.6031 34.6519 27.9206 38.595 32.7638C40.9912 35.7075 34.8281 42.69 31.1513 37.8037ZM40.9594 49.92C41.055 50.0381 41.0981 50.1712 41.1694 50.2969C39.2031 49.8335 37.2249 49.4221 35.2369 49.0631C36.735 47.8181 38.9925 47.5537 40.9594 49.92ZM100.271 88.62C99.4245 87.4798 98.5537 86.3577 97.6594 85.2544C99.15 83.4338 101.469 81.9862 102.525 82.6594C104.434 83.88 102.439 86.8988 100.271 88.62ZM105.429 81.3844C100.948 83.9062 106.688 71.1 108.615 74.4675C109.562 76.1175 107.072 80.46 105.429 81.3844Z" fill="#002500" fill-opacity="0.1"/>
</svg>
