<svg width="100" height="100" viewBox="0 0 100 100" fill="none" xmlns="http://www.w3.org/2000/svg">
<circle cx="50" cy="50" r="50" fill="#002500"/>
<g clip-path="url(#clip0_754_1348)">
<path d="M50 32.2218C48.4036 32.2262 46.8151 32.4468 45.2778 32.8774L46.1334 34.944C49.4563 34.0642 52.9766 34.3041 56.1495 35.6266C59.3224 36.9491 61.9709 39.2805 63.6852 42.26C65.3996 45.2395 66.0841 48.7009 65.6329 52.1086C65.1817 55.5164 63.6199 58.6804 61.1892 61.111C58.7586 63.5417 55.5946 65.1035 52.1868 65.5547C48.7791 66.0059 45.3177 65.3214 42.3382 63.607C39.3587 61.8927 37.0273 59.2442 35.7048 56.0713C34.3823 52.8984 34.1424 49.3781 35.0222 46.0552L32.9556 45.1885C31.947 48.7763 32.0915 52.5902 33.3686 56.0914C34.6457 59.5926 36.9908 62.6039 40.0725 64.6997C43.1541 66.7956 46.8165 67.8699 50.542 67.771C54.2676 67.672 57.8678 66.4048 60.8338 64.1483C63.7999 61.8918 65.9818 58.7603 67.0713 55.1963C68.1607 51.6322 68.1025 47.8159 66.9049 44.2868C65.7074 40.7576 63.431 37.694 60.3975 35.529C57.364 33.3641 53.7268 32.2071 50 32.2218Z" fill="#DEA90A"/>
<path d="M38.2777 47.4442C37.7232 49.9782 38.0038 52.6236 39.0777 54.9848C40.1516 57.346 41.9611 59.2961 44.2355 60.5434C46.5098 61.7907 49.1269 62.2683 51.6952 61.9046C54.2635 61.5409 56.6451 60.3555 58.4837 58.5257C60.3223 56.696 61.5192 54.3202 61.8953 51.7536C62.2714 49.1871 61.8065 46.5677 60.5702 44.2874C59.3339 42.007 57.3926 40.1882 55.0366 39.1029C52.6806 38.0175 50.0366 37.7241 47.4999 38.2664L48.1888 39.9998C50.347 39.5957 52.5778 39.8942 54.5539 40.8514C56.5299 41.8085 58.147 43.374 59.1678 45.318C60.1886 47.2619 60.5593 49.4819 60.2255 51.652C59.8917 53.8222 58.8709 55.8281 57.313 57.3754C55.7552 58.9227 53.7424 59.9297 51.57 60.2488C49.3976 60.5678 47.1802 60.182 45.2433 59.148C43.3063 58.114 41.7519 56.4863 40.8082 54.5038C39.8645 52.5213 39.5812 50.2885 39.9999 48.1331L38.2777 47.4442Z" fill="#DEA90A"/>
<path d="M49.9999 54.5448C48.8862 54.5283 47.8175 54.1023 46.9977 53.3481C46.178 52.594 45.6646 51.5644 45.5555 50.4559L43.7444 49.7003V50.0003C43.7445 51.2535 44.117 52.4785 44.8147 53.5196C45.5124 54.5607 46.5037 55.3709 47.6628 55.8474C48.822 56.3239 50.0966 56.4451 51.3247 56.1957C52.5529 55.9463 53.6793 55.3375 54.5607 54.4467C55.4422 53.5558 56.039 52.4231 56.2754 51.1923C56.5117 49.9616 56.377 48.6884 55.8882 47.5343C55.3995 46.3803 54.5788 45.3976 53.5304 44.711C52.4819 44.0244 51.2531 43.6649 49.9999 43.6781H49.7333L50.4777 45.5559C51.5883 45.7243 52.5964 46.2999 53.3058 47.1708C54.0152 48.0416 54.3751 49.1453 54.3155 50.267C54.2559 51.3886 53.781 52.448 52.9833 53.2387C52.1855 54.0294 51.1221 54.495 49.9999 54.5448Z" fill="#DEA90A"/>
<path d="M39.1112 44.8218C39.2137 44.9265 39.3535 44.9864 39.5001 44.9885H43.5556L49.5223 50.9552C49.7315 51.1659 50.0159 51.2848 50.3128 51.2859C50.6097 51.2869 50.8949 51.1699 51.1056 50.9607C51.3163 50.7515 51.4353 50.4671 51.4363 50.1702C51.4374 49.8733 51.3204 49.5881 51.1112 49.3774L45.0334 43.3329V39.4552C45.0313 39.3086 44.9714 39.1688 44.8667 39.0663L38.6556 32.8552C38.578 32.779 38.4797 32.7273 38.3729 32.7065C38.2662 32.6857 38.1557 32.6967 38.0551 32.7381C37.9546 32.7795 37.8684 32.8495 37.8073 32.9395C37.7461 33.0294 37.7127 33.1353 37.7112 33.244V37.6885H33.3334C33.2247 37.69 33.1188 37.7234 33.0288 37.7846C32.9389 37.8457 32.8689 37.9319 32.8275 38.0325C32.7861 38.133 32.7751 38.2435 32.7959 38.3503C32.8167 38.457 32.8684 38.5553 32.9445 38.6329L39.1112 44.8218Z" fill="#DEA90A"/>
</g>
<defs>
<clipPath id="clip0_754_1348">
<rect width="40" height="40" fill="white" transform="translate(30 30)"/>
</clipPath>
</defs>
</svg>
