<svg width="100" height="100" viewBox="0 0 100 100" fill="none" xmlns="http://www.w3.org/2000/svg">
<circle cx="50" cy="50" r="50" fill="#002500"/>
<path d="M41.3635 44.2965C42.6514 43.5975 44.0854 45.0167 44.987 46.8603C44.9989 47.8301 45.3623 48.6817 45.806 49.3649L44.0808 50.9589C41.7593 49.9067 39.4506 45.9874 40.9696 44.5839C41.0888 44.4723 41.2215 44.3761 41.3645 44.2974L41.3635 44.2965ZM46.4135 50.1137L44.6568 51.7356C46.8037 55.5502 49.8084 51.7106 46.4135 50.1137H46.4135ZM53.2628 59.0137C53.1198 59.0924 52.9871 59.1887 52.8679 59.3003C51.3489 60.7038 53.6575 64.6229 55.9791 65.6751L57.7043 64.0812C57.2606 63.3979 56.8981 62.5464 56.8851 61.5765C55.9837 59.733 54.5497 58.3138 53.2617 59.0128L53.2628 59.0137ZM58.3128 64.831L56.556 66.4527C58.7028 70.2655 61.7077 66.4267 58.3118 64.831L58.3128 64.831ZM53.221 46.2426C52.0746 47.1551 52.8217 49.0291 54.166 50.5787C55.0535 50.9689 55.6961 51.6355 56.1519 52.3104L58.2951 51.3442C58.2322 48.7961 55.526 45.1403 53.6408 45.9911C53.4916 46.0572 53.3512 46.1417 53.2228 46.2425L53.221 46.2426ZM56.605 53.1629C56.7493 56.912 61.4571 55.6444 58.7832 52.1791L56.605 53.1629ZM40.4566 32.583C39.5727 33.7515 40.7607 35.3778 42.4443 36.5492C43.4014 36.7064 44.189 37.1964 44.7975 37.7346L46.6317 36.2674C45.9429 33.8144 42.4147 30.94 40.7996 32.2343C40.6713 32.3352 40.556 32.4517 40.4565 32.581L40.4566 32.583ZM45.4492 38.4474C46.5179 42.0439 50.7654 39.6493 47.3159 36.9542L45.4501 38.4474H45.4492Z" fill="#DEA90A"/>
</svg>
