<svg width="116" height="120" viewBox="0 0 116 120" fill="none" xmlns="http://www.w3.org/2000/svg">
<path d="M56.6094 0.977557C57.5132 0.683896 58.4868 0.683896 59.3906 0.977557L91.5675 11.4325C92.4713 11.7261 93.2589 12.2984 93.8175 13.0672L113.704 40.4385C114.263 41.2074 114.563 42.1333 114.563 43.0836V76.9164C114.563 77.8667 114.263 78.7926 113.704 79.5615L93.8175 106.933C93.2589 107.702 92.4713 108.274 91.5675 108.568L59.3906 119.022C58.4868 119.316 57.5132 119.316 56.6094 119.022L24.4325 108.568C23.5287 108.274 22.7411 107.702 22.1825 106.933L2.29603 79.5615C1.73746 78.7926 1.43661 77.8667 1.43661 76.9164V43.0836C1.43661 42.1333 1.73745 41.2074 2.29603 40.4385L22.1825 13.0672C22.7411 12.2984 23.5287 11.7261 24.4325 11.4325L56.6094 0.977557Z" stroke="#002500"/>
</svg>
