<svg width="176" height="182" viewBox="0 0 176 182" fill="none" xmlns="http://www.w3.org/2000/svg">
<g filter="url(#filter0_dd_695_1120)">
<path d="M86.4549 8.50203C87.4591 8.17574 88.5409 8.17574 89.5451 8.50203L130.539 21.8217C131.543 22.148 132.418 22.7838 133.039 23.6381L158.374 58.5094C158.995 59.3636 159.329 60.3924 159.329 61.4483V104.552C159.329 105.608 158.995 106.636 158.374 107.491L133.039 142.362C132.418 143.216 131.543 143.852 130.539 144.178L89.5451 157.498C88.5409 157.824 87.4591 157.824 86.4549 157.498L45.4612 144.178C44.457 143.852 43.5818 143.216 42.9612 142.362L17.6257 107.491C17.005 106.636 16.6708 105.608 16.6708 104.552V61.4483C16.6708 60.3924 17.005 59.3636 17.6257 58.5094L42.9612 23.6381C43.5818 22.7838 44.457 22.148 45.4612 21.8217L86.4549 8.50203Z" fill="white"/>
</g>
<defs>
<filter id="filter0_dd_695_1120" x="0.670776" y="0.256836" width="174.658" height="181.486" filterUnits="userSpaceOnUse" color-interpolation-filters="sRGB">
<feFlood flood-opacity="0" result="BackgroundImageFix"/>
<feColorMatrix in="SourceAlpha" type="matrix" values="0 0 0 0 0 0 0 0 0 0 0 0 0 0 0 0 0 0 127 0" result="hardAlpha"/>
<feOffset dy="8"/>
<feGaussianBlur stdDeviation="8"/>
<feColorMatrix type="matrix" values="0 0 0 0 0 0 0 0 0 0 0 0 0 0 0 0 0 0 0.08 0"/>
<feBlend mode="normal" in2="BackgroundImageFix" result="effect1_dropShadow_695_1120"/>
<feColorMatrix in="SourceAlpha" type="matrix" values="0 0 0 0 0 0 0 0 0 0 0 0 0 0 0 0 0 0 127 0" result="hardAlpha"/>
<feOffset/>
<feGaussianBlur stdDeviation="2"/>
<feColorMatrix type="matrix" values="0 0 0 0 0 0 0 0 0 0 0 0 0 0 0 0 0 0 0.04 0"/>
<feBlend mode="normal" in2="effect1_dropShadow_695_1120" result="effect2_dropShadow_695_1120"/>
<feBlend mode="normal" in="SourceGraphic" in2="effect2_dropShadow_695_1120" result="shape"/>
</filter>
</defs>
</svg>
