<svg width="36" height="28" viewBox="0 0 36 28" fill="none" xmlns="http://www.w3.org/2000/svg">
<path d="M11.8728 1.27698L13.1353 3.22518C10.009 5.00627 8.08076 7.03467 6.8669 9.00746C5.59498 11.0746 5.12459 13.0533 4.85958 14.5577L4.68423 15.5532L5.58187 15.0885C6.54856 14.5881 7.85248 14.3985 9.16375 14.5203L9.16391 14.5204C12.5262 14.8316 15.162 17.5881 15.162 21.0005C15.162 22.7244 14.4772 24.3777 13.2582 25.5967C12.0397 26.8152 10.3873 27.4999 8.66418 27.5005C7.70455 27.4918 6.75621 27.2925 5.87426 26.9141C4.9927 26.5359 4.19508 25.9863 3.5277 25.2972C1.56112 23.2075 0.5 20.8784 0.5 17.0225C0.5 10.3939 5.0741 4.375 11.8728 1.27698ZM31.8728 1.27698L33.1353 3.22518C30.009 5.00627 28.0808 7.03467 26.8669 9.00746C25.595 11.0746 25.1246 13.0533 24.8596 14.5577L24.6842 15.5532L25.5819 15.0885C26.5486 14.5881 27.8525 14.3985 29.1638 14.5203L29.1639 14.5204C32.5262 14.8316 35.162 17.5881 35.162 21.0005C35.162 22.7244 34.4772 24.3777 33.2582 25.5967C32.0397 26.8152 30.3873 27.4999 28.6642 27.5005C27.7045 27.4918 26.7562 27.2925 25.8743 26.9141C24.9927 26.5359 24.1951 25.9863 23.5277 25.2973C21.5611 23.2076 20.5 20.8785 20.5 17.0225C20.5 10.3939 25.0741 4.375 31.8728 1.27698Z" stroke="#002500"/>
</svg>
