<svg width="100" height="100" viewBox="0 0 100 100" fill="none" xmlns="http://www.w3.org/2000/svg">
<circle cx="50" cy="50" r="50" fill="#002500"/>
<g clip-path="url(#clip0_754_1350)">
<path d="M67.3556 49.4773C63.6111 42.5551 57.0445 38.3662 49.7778 38.3662C42.5111 38.3662 35.9334 42.5551 32.2222 49.4773L31.9111 49.9995L32.2 50.5329C35.9445 57.4551 42.5111 61.644 49.7778 61.644C57.0445 61.644 63.6222 57.5107 67.3556 50.5329L67.6445 49.9995L67.3556 49.4773ZM49.7778 59.3662C43.5222 59.3662 37.7778 55.8773 34.4445 49.9995C37.7778 44.1218 43.5222 40.6329 49.7778 40.6329C56.0334 40.6329 61.7111 44.1329 65.1 49.9995C61.7111 55.8773 56.0222 59.3662 49.7778 59.3662Z" fill="#DEA90A"/>
<path d="M50.1 42.4113C48.5935 42.4223 47.124 42.8795 45.8772 43.7252C44.6303 44.5709 43.6621 45.7671 43.0947 47.1627C42.5273 48.5584 42.3862 50.0909 42.6893 51.5666C42.9923 53.0424 43.7259 54.3953 44.7974 55.4544C45.8689 56.5135 47.2302 57.2313 48.7094 57.5171C50.1886 57.803 51.7194 57.6441 53.1083 57.0604C54.4973 56.4768 55.6821 55.4947 56.5132 54.2381C57.3443 52.9815 57.7844 51.5068 57.7778 50.0002C57.7735 48.9974 57.5712 48.0052 57.1828 47.0807C56.7943 46.1561 56.2272 45.3173 55.5139 44.6123C54.8007 43.9074 53.9553 43.35 53.0263 42.9724C52.0973 42.5947 51.1029 42.404 50.1 42.4113ZM50.1 55.4336C49.0359 55.4226 47.9987 55.0974 47.1187 54.4989C46.2388 53.9004 45.5553 53.0552 45.1541 52.0695C44.7529 51.0838 44.6519 50.0015 44.8638 48.9586C45.0757 47.9157 45.5911 46.9587 46.3451 46.2077C47.0992 45.4567 48.0583 44.9453 49.1021 44.7376C50.1458 44.53 51.2277 44.6354 52.2118 45.0406C53.1958 45.4458 54.0382 46.1327 54.6331 47.0151C55.228 47.8975 55.549 48.936 55.5556 50.0002C55.5586 50.7164 55.4193 51.4261 55.1459 52.0881C54.8725 52.7501 54.4704 53.3512 53.963 53.8567C53.4555 54.3621 52.8527 54.7617 52.1896 55.0324C51.5265 55.3031 50.8162 55.4394 50.1 55.4336Z" fill="#DEA90A"/>
</g>
<defs>
<clipPath id="clip0_754_1350">
<rect width="40" height="40" fill="white" transform="translate(30 30)"/>
</clipPath>
</defs>
</svg>
